# xmcd
#
# Track frame offsets:
#	150
#	19867
#	40782
#	63457
#	89976
#	107357
#	128665
#	142990
#	160623
#	180525
#	204633
#	220519
#	237286
#
# Disc length: 3440 seconds
#
# Revision: 1
# Processed by: cddbd v1.5.2PL0 Copyright (c) Steve Scherf et al.
# Submitted via: EasyCDDAExtractor 16.0.1.1
#
DISCID=ab0d6e0d
DTITLE=Rick Shea - Sawbones
DYEAR=2000
DGENRE=AlternRock
TTITLE0=Blackeyed Girl
TTITLE1=Magdalena
TTITLE2=Lonesome Cannonball
TTITLE3=Deep Within The Well
TTITLE4=Walkin´To Jerusalem
TTITLE5=Still Water
TTITLE6=Saginaw Michigan
TTITLE7=Emperor Of The North
TTITLE8=A Bend In The River
TTITLE9=Piedmint Ridge
TTITLE10=Sawbones
TTITLE11=Mesquite
TTITLE12=Camelia
EXTD=
EXTT0=
EXTT1=
EXTT2=
EXTT3=
EXTT4=
EXTT5=
EXTT6=
EXTT7=
EXTT8=
EXTT9=
EXTT10=
EXTT11=
EXTT12=
PLAYORDER=
